<?xml version="1.0"?>
<svg xmlns="http://www.w3.org/2000/svg" xmlns:xlink="http://www.w3.org/1999/xlink" version="1.1" id="Layer_1" x="0px" y="0px" viewBox="0 0 512 512" style="enable-background:new 0 0 512 512;" xml:space="preserve" width="512px" height="512px"><g><g>
	<g>
		<g>
			<path d="M454.708,39.738V0H73.187v39.738H1.658v365.626h190.744V512l106.635-106.636h211.305V39.738H454.708z M89.117,15.93     h349.661v222.499H327.511v60.265l-60.265-60.265H89.117V15.93z M494.413,389.434L494.413,389.434H292.439l-84.107,84.108v-84.108     H17.589V55.668h55.599v198.691h187.46l82.793,82.793v-82.793h111.268V55.668h39.704V389.434z" data-original="#000000" class="active-path" data-old_color="#000000" fill="#787878"/>
			<rect x="128.832" y="55.628" width="222.533" height="15.93" data-original="#000000" class="active-path" data-old_color="#000000" fill="#787878"/>
			<rect x="128.832" y="95.368" width="270.217" height="15.93" data-original="#000000" class="active-path" data-old_color="#000000" fill="#787878"/>
			<rect x="128.832" y="135.109" width="270.217" height="15.93" data-original="#000000" class="active-path" data-old_color="#000000" fill="#787878"/>
			<rect x="128.832" y="174.849" width="206.635" height="15.93" data-original="#000000" class="active-path" data-old_color="#000000" fill="#787878"/>
			<rect x="383.162" y="174.849" width="15.895" height="15.93" data-original="#000000" class="active-path" data-old_color="#000000" fill="#787878"/>
			<rect x="351.376" y="174.849" width="15.895" height="15.93" data-original="#000000" class="active-path" data-old_color="#000000" fill="#787878"/>
		</g>
	</g>
</g></g> </svg>
