<?xml version="1.0" encoding="UTF-8" standalone="no"?>
<!DOCTYPE svg PUBLIC "-//W3C//DTD SVG 1.1//EN" "http://www.w3.org/Graphics/SVG/1.1/DTD/svg11.dtd">
<svg width="100%" height="100%" viewBox="0 0 100 50" version="1.1" xmlns="http://www.w3.org/2000/svg" xmlns:xlink="http://www.w3.org/1999/xlink" xml:space="preserve" xmlns:serif="http://www.serif.com/" style="fill-rule:evenodd;clip-rule:evenodd;stroke-linejoin:round;stroke-miterlimit:2;">
    <g transform="matrix(1.1039,0,0,1.1039,1.88539,-25.0616)">
        <g transform="matrix(1,0,0,1,-0.317662,4.95553)">
            <g transform="matrix(20,0,0,20,41.6213,56.2372)">
                <path d="M0.282,-0.511C0.306,-0.511 0.329,-0.507 0.35,-0.5C0.371,-0.493 0.389,-0.481 0.402,-0.464C0.415,-0.447 0.422,-0.425 0.422,-0.396C0.422,-0.369 0.413,-0.345 0.394,-0.325C0.375,-0.305 0.351,-0.289 0.321,-0.276C0.291,-0.263 0.259,-0.252 0.225,-0.244C0.191,-0.236 0.158,-0.23 0.127,-0.227C0.127,-0.186 0.131,-0.151 0.14,-0.123C0.148,-0.095 0.16,-0.074 0.177,-0.06C0.194,-0.046 0.215,-0.039 0.241,-0.039C0.26,-0.039 0.28,-0.043 0.3,-0.052C0.319,-0.061 0.338,-0.074 0.356,-0.092C0.374,-0.109 0.39,-0.132 0.405,-0.16L0.438,-0.141C0.419,-0.106 0.399,-0.078 0.378,-0.055C0.357,-0.032 0.333,-0.016 0.308,-0.005C0.283,0.006 0.255,0.011 0.224,0.011C0.161,0.011 0.114,-0.009 0.084,-0.049C0.054,-0.088 0.039,-0.14 0.039,-0.205C0.039,-0.244 0.044,-0.281 0.054,-0.318C0.064,-0.355 0.079,-0.388 0.099,-0.417C0.119,-0.446 0.144,-0.469 0.175,-0.486C0.206,-0.502 0.241,-0.511 0.282,-0.511ZM0.268,-0.477C0.237,-0.477 0.212,-0.467 0.193,-0.446C0.173,-0.425 0.158,-0.399 0.148,-0.366C0.137,-0.333 0.131,-0.299 0.128,-0.263C0.163,-0.268 0.197,-0.276 0.229,-0.288C0.261,-0.3 0.287,-0.316 0.308,-0.335C0.329,-0.354 0.339,-0.376 0.339,-0.401C0.339,-0.422 0.333,-0.44 0.322,-0.455C0.31,-0.47 0.292,-0.477 0.268,-0.477Z" style="fill:rgb(120,120,120);fill-rule:nonzero;"/>
            </g>
            <g transform="matrix(20,0,0,20,51.1613,56.2372)">
                <path d="M0.282,-0.511C0.306,-0.511 0.329,-0.507 0.35,-0.5C0.371,-0.493 0.389,-0.481 0.402,-0.464C0.415,-0.447 0.422,-0.425 0.422,-0.396C0.422,-0.369 0.413,-0.345 0.394,-0.325C0.375,-0.305 0.351,-0.289 0.321,-0.276C0.291,-0.263 0.259,-0.252 0.225,-0.244C0.191,-0.236 0.158,-0.23 0.127,-0.227C0.127,-0.186 0.131,-0.151 0.14,-0.123C0.148,-0.095 0.16,-0.074 0.177,-0.06C0.194,-0.046 0.215,-0.039 0.241,-0.039C0.26,-0.039 0.28,-0.043 0.3,-0.052C0.319,-0.061 0.338,-0.074 0.356,-0.092C0.374,-0.109 0.39,-0.132 0.405,-0.16L0.438,-0.141C0.419,-0.106 0.399,-0.078 0.378,-0.055C0.357,-0.032 0.333,-0.016 0.308,-0.005C0.283,0.006 0.255,0.011 0.224,0.011C0.161,0.011 0.114,-0.009 0.084,-0.049C0.054,-0.088 0.039,-0.14 0.039,-0.205C0.039,-0.244 0.044,-0.281 0.054,-0.318C0.064,-0.355 0.079,-0.388 0.099,-0.417C0.119,-0.446 0.144,-0.469 0.175,-0.486C0.206,-0.502 0.241,-0.511 0.282,-0.511ZM0.268,-0.477C0.237,-0.477 0.212,-0.467 0.193,-0.446C0.173,-0.425 0.158,-0.399 0.148,-0.366C0.137,-0.333 0.131,-0.299 0.128,-0.263C0.163,-0.268 0.197,-0.276 0.229,-0.288C0.261,-0.3 0.287,-0.316 0.308,-0.335C0.329,-0.354 0.339,-0.376 0.339,-0.401C0.339,-0.422 0.333,-0.44 0.322,-0.455C0.31,-0.47 0.292,-0.477 0.268,-0.477Z" style="fill:rgb(120,120,120);fill-rule:nonzero;"/>
            </g>
            <g transform="matrix(20,0,0,20,60.7013,56.2372)">
                <path d="M0.473,0.011C0.442,0.011 0.42,0.003 0.409,-0.014C0.398,-0.031 0.392,-0.054 0.392,-0.085C0.392,-0.104 0.394,-0.126 0.397,-0.151C0.4,-0.176 0.403,-0.203 0.407,-0.232C0.412,-0.261 0.416,-0.29 0.419,-0.319C0.422,-0.348 0.423,-0.376 0.423,-0.403C0.423,-0.411 0.422,-0.42 0.42,-0.429C0.417,-0.438 0.413,-0.447 0.406,-0.454C0.399,-0.461 0.389,-0.464 0.376,-0.464C0.357,-0.464 0.339,-0.455 0.32,-0.438C0.301,-0.421 0.284,-0.397 0.267,-0.368C0.25,-0.339 0.235,-0.306 0.222,-0.271C0.209,-0.235 0.198,-0.198 0.191,-0.161C0.183,-0.123 0.179,-0.087 0.179,-0.053C0.179,-0.043 0.179,-0.034 0.18,-0.025C0.18,-0.017 0.18,-0.009 0.181,0L0.097,0C0.096,-0.005 0.096,-0.009 0.096,-0.013L0.096,-0.026C0.096,-0.037 0.097,-0.051 0.098,-0.066C0.099,-0.081 0.102,-0.101 0.105,-0.126C0.108,-0.151 0.111,-0.184 0.116,-0.226C0.121,-0.265 0.124,-0.296 0.127,-0.318C0.129,-0.34 0.131,-0.357 0.132,-0.369C0.133,-0.38 0.134,-0.389 0.135,-0.396C0.135,-0.402 0.135,-0.409 0.135,-0.416C0.135,-0.428 0.133,-0.439 0.13,-0.448C0.127,-0.457 0.119,-0.461 0.108,-0.461C0.097,-0.461 0.085,-0.454 0.071,-0.439C0.057,-0.424 0.045,-0.399 0.035,-0.364L0.007,-0.37C0.009,-0.382 0.013,-0.396 0.02,-0.411C0.026,-0.427 0.034,-0.443 0.045,-0.458C0.056,-0.473 0.069,-0.486 0.084,-0.496C0.099,-0.506 0.117,-0.511 0.137,-0.511C0.16,-0.511 0.177,-0.505 0.188,-0.493C0.199,-0.48 0.205,-0.464 0.209,-0.445C0.212,-0.426 0.212,-0.405 0.211,-0.383C0.21,-0.364 0.207,-0.346 0.204,-0.329C0.202,-0.312 0.199,-0.296 0.196,-0.283L0.199,-0.283C0.222,-0.344 0.244,-0.391 0.266,-0.424C0.288,-0.457 0.31,-0.479 0.332,-0.492C0.353,-0.505 0.375,-0.511 0.396,-0.511C0.423,-0.511 0.444,-0.505 0.46,-0.493C0.476,-0.481 0.488,-0.465 0.495,-0.446C0.501,-0.426 0.505,-0.404 0.505,-0.381C0.505,-0.344 0.502,-0.307 0.498,-0.269C0.493,-0.23 0.488,-0.195 0.483,-0.163C0.477,-0.13 0.475,-0.104 0.475,-0.085C0.475,-0.073 0.476,-0.062 0.48,-0.053C0.483,-0.044 0.49,-0.039 0.502,-0.039C0.513,-0.039 0.526,-0.046 0.54,-0.061C0.553,-0.075 0.565,-0.1 0.575,-0.136L0.603,-0.129C0.601,-0.118 0.597,-0.104 0.591,-0.088C0.584,-0.072 0.576,-0.057 0.565,-0.042C0.554,-0.027 0.541,-0.014 0.526,-0.004C0.511,0.006 0.493,0.011 0.473,0.011Z" style="fill:rgb(120,120,120);fill-rule:nonzero;"/>
            </g>
            <g transform="matrix(20,0,0,20,73.0013,56.2372)">
                <path d="M0.208,0.011C0.181,0.011 0.16,0.005 0.144,-0.007C0.128,-0.019 0.117,-0.035 0.11,-0.055C0.102,-0.075 0.099,-0.096 0.099,-0.119C0.099,-0.156 0.102,-0.194 0.107,-0.232C0.112,-0.27 0.118,-0.305 0.123,-0.338C0.128,-0.37 0.131,-0.395 0.131,-0.414C0.131,-0.427 0.13,-0.438 0.127,-0.447C0.124,-0.456 0.116,-0.461 0.104,-0.461C0.093,-0.461 0.082,-0.454 0.069,-0.439C0.056,-0.424 0.044,-0.399 0.034,-0.364L0.006,-0.37C0.008,-0.382 0.012,-0.396 0.018,-0.411C0.024,-0.427 0.032,-0.443 0.043,-0.458C0.053,-0.473 0.066,-0.486 0.081,-0.496C0.096,-0.506 0.113,-0.511 0.133,-0.511C0.16,-0.511 0.18,-0.503 0.194,-0.486C0.207,-0.469 0.214,-0.445 0.214,-0.414C0.214,-0.395 0.212,-0.372 0.209,-0.345C0.206,-0.318 0.202,-0.289 0.198,-0.26C0.193,-0.23 0.189,-0.201 0.186,-0.173C0.183,-0.145 0.181,-0.12 0.181,-0.099C0.181,-0.092 0.182,-0.083 0.185,-0.073C0.187,-0.063 0.192,-0.054 0.199,-0.047C0.205,-0.04 0.215,-0.036 0.228,-0.036C0.247,-0.036 0.265,-0.045 0.283,-0.062C0.301,-0.079 0.318,-0.103 0.334,-0.132C0.35,-0.161 0.364,-0.194 0.377,-0.23C0.39,-0.265 0.4,-0.302 0.406,-0.34C0.413,-0.377 0.417,-0.413 0.417,-0.447C0.417,-0.457 0.417,-0.466 0.417,-0.474C0.416,-0.483 0.416,-0.491 0.415,-0.5L0.499,-0.5C0.5,-0.495 0.5,-0.491 0.5,-0.488L0.5,-0.474C0.5,-0.463 0.499,-0.449 0.498,-0.434C0.497,-0.418 0.495,-0.397 0.492,-0.372C0.489,-0.346 0.485,-0.312 0.48,-0.27C0.475,-0.231 0.472,-0.201 0.469,-0.179C0.467,-0.157 0.465,-0.141 0.464,-0.13C0.463,-0.118 0.462,-0.11 0.462,-0.104C0.461,-0.098 0.461,-0.091 0.461,-0.084C0.461,-0.072 0.463,-0.062 0.467,-0.053C0.47,-0.044 0.477,-0.04 0.488,-0.04C0.499,-0.04 0.512,-0.047 0.526,-0.062C0.539,-0.076 0.551,-0.101 0.561,-0.136L0.589,-0.13C0.587,-0.118 0.583,-0.104 0.577,-0.089C0.57,-0.073 0.562,-0.057 0.551,-0.042C0.54,-0.027 0.527,-0.014 0.512,-0.004C0.497,0.006 0.479,0.011 0.459,0.011C0.432,0.011 0.413,0.003 0.401,-0.014C0.388,-0.031 0.382,-0.052 0.382,-0.079C0.382,-0.098 0.384,-0.119 0.388,-0.142C0.391,-0.165 0.395,-0.188 0.4,-0.213L0.397,-0.213C0.374,-0.152 0.353,-0.106 0.332,-0.074C0.311,-0.041 0.291,-0.019 0.271,-0.007C0.251,0.005 0.23,0.011 0.208,0.011Z" style="fill:rgb(120,120,120);fill-rule:nonzero;"/>
            </g>
        </g>
        <g transform="matrix(0.379242,0,0,0.379242,37.1204,55.4867)">
            <path d="M0,-52.792L-71.614,-52.792C-74.964,-52.792 -78.074,-53.834 -80.642,-55.607L-80.642,15.929C-80.642,20.907 -76.592,24.957 -71.614,24.957L0,24.957L0,-52.792ZM-80.642,-68.722C-80.642,-63.744 -76.592,-59.695 -71.614,-59.695L-2.021,-59.695L-2.021,-77.75L-71.614,-77.75C-76.592,-77.75 -80.642,-73.7 -80.642,-68.722M6.903,-56.243L6.903,28.408C6.903,30.314 5.358,31.86 3.451,31.86L-71.614,31.86C-80.398,31.86 -87.544,24.714 -87.544,15.929L-87.544,-68.723C-87.544,-77.506 -80.398,-84.652 -71.614,-84.652L3.451,-84.652C5.358,-84.652 6.903,-83.107 6.903,-81.201C6.903,-79.295 5.358,-77.75 3.451,-77.75L1.43,-77.75L1.43,-59.695L3.451,-59.695C5.358,-59.695 6.903,-58.149 6.903,-56.243M-70.965,-70.643L-10.656,-70.643C-9.703,-70.643 -8.931,-71.415 -8.931,-72.368C-8.931,-73.322 -9.703,-74.094 -10.656,-74.094L-70.965,-74.094C-71.918,-74.094 -72.691,-73.322 -72.691,-72.368C-72.691,-71.415 -71.918,-70.643 -70.965,-70.643M-72.691,-65.366C-72.691,-66.319 -71.918,-67.091 -70.965,-67.091L-10.656,-67.091C-9.703,-67.091 -8.931,-66.319 -8.931,-65.366C-8.931,-64.413 -9.703,-63.64 -10.656,-63.64L-70.965,-63.64C-71.918,-63.64 -72.691,-64.413 -72.691,-65.366" style="fill:rgb(120,120,120);fill-rule:nonzero;"/>
        </g>
        <g transform="matrix(30,0,0,30,8.45743,61.2459)">
            <path d="M0.415,0.01L0.242,-0.462C0.236,-0.479 0.231,-0.494 0.227,-0.505C0.222,-0.517 0.218,-0.53 0.214,-0.543C0.209,-0.556 0.204,-0.572 0.198,-0.593L0.196,-0.593C0.195,-0.556 0.193,-0.521 0.191,-0.488C0.188,-0.455 0.186,-0.424 0.183,-0.395L0.157,-0.125C0.156,-0.11 0.154,-0.096 0.153,-0.081C0.151,-0.066 0.149,-0.053 0.147,-0.04L0.223,-0.044L0.22,0L0.03,0L0.032,-0.033C0.053,-0.034 0.068,-0.038 0.078,-0.047C0.087,-0.055 0.094,-0.066 0.098,-0.08C0.101,-0.094 0.104,-0.109 0.105,-0.125L0.15,-0.575C0.151,-0.589 0.153,-0.603 0.155,-0.618C0.156,-0.632 0.158,-0.646 0.159,-0.66C0.147,-0.659 0.135,-0.659 0.123,-0.659C0.111,-0.658 0.099,-0.658 0.087,-0.657L0.089,-0.7L0.238,-0.7L0.392,-0.29C0.402,-0.263 0.412,-0.235 0.423,-0.207C0.434,-0.179 0.444,-0.151 0.455,-0.122L0.457,-0.122C0.466,-0.14 0.475,-0.162 0.487,-0.187C0.498,-0.212 0.507,-0.233 0.515,-0.251C0.536,-0.299 0.559,-0.348 0.584,-0.4C0.609,-0.451 0.633,-0.501 0.658,-0.553C0.683,-0.604 0.705,-0.653 0.726,-0.7L0.87,-0.7L0.868,-0.667C0.851,-0.668 0.838,-0.665 0.827,-0.658C0.816,-0.651 0.807,-0.639 0.802,-0.623C0.797,-0.607 0.794,-0.585 0.794,-0.558L0.797,-0.103C0.797,-0.091 0.797,-0.08 0.797,-0.07C0.796,-0.059 0.796,-0.049 0.795,-0.04L0.869,-0.044L0.866,0L0.646,0L0.648,-0.033C0.667,-0.034 0.681,-0.039 0.691,-0.046C0.701,-0.053 0.708,-0.064 0.712,-0.081C0.716,-0.098 0.718,-0.121 0.718,-0.152L0.718,-0.523L0.719,-0.58L0.717,-0.58L0.682,-0.503L0.444,0.01L0.415,0.01Z" style="fill:rgb(120,120,120);fill-rule:nonzero;"/>
        </g>
    </g>
</svg>
