<?xml version="1.0" encoding="UTF-8" standalone="no"?>
<!DOCTYPE svg PUBLIC "-//W3C//DTD SVG 1.1//EN" "http://www.w3.org/Graphics/SVG/1.1/DTD/svg11.dtd">
<svg width="100%" height="100%" viewBox="0 0 50 50" version="1.1" xmlns="http://www.w3.org/2000/svg" xmlns:xlink="http://www.w3.org/1999/xlink" xml:space="preserve" xmlns:serif="http://www.serif.com/" style="fill-rule:evenodd;clip-rule:evenodd;stroke-linejoin:round;stroke-miterlimit:2;">
    <g transform="matrix(1.1039,0,0,1.1039,1.15477,-25.1251)">
        <g transform="matrix(0.379242,0,0,0.379242,37.1204,55.4867)">
            <path d="M0,-52.792L-71.614,-52.792C-74.964,-52.792 -78.074,-53.834 -80.642,-55.607L-80.642,15.929C-80.642,20.907 -76.592,24.957 -71.614,24.957L0,24.957L0,-52.792ZM-80.642,-68.722C-80.642,-63.744 -76.592,-59.695 -71.614,-59.695L-2.021,-59.695L-2.021,-77.75L-71.614,-77.75C-76.592,-77.75 -80.642,-73.7 -80.642,-68.722M6.903,-56.243L6.903,28.408C6.903,30.314 5.358,31.86 3.451,31.86L-71.614,31.86C-80.398,31.86 -87.544,24.714 -87.544,15.929L-87.544,-68.723C-87.544,-77.506 -80.398,-84.652 -71.614,-84.652L3.451,-84.652C5.358,-84.652 6.903,-83.107 6.903,-81.201C6.903,-79.295 5.358,-77.75 3.451,-77.75L1.43,-77.75L1.43,-59.695L3.451,-59.695C5.358,-59.695 6.903,-58.149 6.903,-56.243M-70.965,-70.643L-10.656,-70.643C-9.703,-70.643 -8.931,-71.415 -8.931,-72.368C-8.931,-73.322 -9.703,-74.094 -10.656,-74.094L-70.965,-74.094C-71.918,-74.094 -72.691,-73.322 -72.691,-72.368C-72.691,-71.415 -71.918,-70.643 -70.965,-70.643M-72.691,-65.366C-72.691,-66.319 -71.918,-67.091 -70.965,-67.091L-10.656,-67.091C-9.703,-67.091 -8.931,-66.319 -8.931,-65.366C-8.931,-64.413 -9.703,-63.64 -10.656,-63.64L-70.965,-63.64C-71.918,-63.64 -72.691,-64.413 -72.691,-65.366" style="fill:rgb(120,120,120);fill-rule:nonzero;"/>
        </g>
        <g transform="matrix(30,0,0,30,8.45743,61.2459)">
            <path d="M0.415,0.01L0.242,-0.462C0.236,-0.479 0.231,-0.494 0.227,-0.505C0.222,-0.517 0.218,-0.53 0.214,-0.543C0.209,-0.556 0.204,-0.572 0.198,-0.593L0.196,-0.593C0.195,-0.556 0.193,-0.521 0.191,-0.488C0.188,-0.455 0.186,-0.424 0.183,-0.395L0.157,-0.125C0.156,-0.11 0.154,-0.096 0.153,-0.081C0.151,-0.066 0.149,-0.053 0.147,-0.04L0.223,-0.044L0.22,0L0.03,0L0.032,-0.033C0.053,-0.034 0.068,-0.038 0.078,-0.047C0.087,-0.055 0.094,-0.066 0.098,-0.08C0.101,-0.094 0.104,-0.109 0.105,-0.125L0.15,-0.575C0.151,-0.589 0.153,-0.603 0.155,-0.618C0.156,-0.632 0.158,-0.646 0.159,-0.66C0.147,-0.659 0.135,-0.659 0.123,-0.659C0.111,-0.658 0.099,-0.658 0.087,-0.657L0.089,-0.7L0.238,-0.7L0.392,-0.29C0.402,-0.263 0.412,-0.235 0.423,-0.207C0.434,-0.179 0.444,-0.151 0.455,-0.122L0.457,-0.122C0.466,-0.14 0.475,-0.162 0.487,-0.187C0.498,-0.212 0.507,-0.233 0.515,-0.251C0.536,-0.299 0.559,-0.348 0.584,-0.4C0.609,-0.451 0.633,-0.501 0.658,-0.553C0.683,-0.604 0.705,-0.653 0.726,-0.7L0.87,-0.7L0.868,-0.667C0.851,-0.668 0.838,-0.665 0.827,-0.658C0.816,-0.651 0.807,-0.639 0.802,-0.623C0.797,-0.607 0.794,-0.585 0.794,-0.558L0.797,-0.103C0.797,-0.091 0.797,-0.08 0.797,-0.07C0.796,-0.059 0.796,-0.049 0.795,-0.04L0.869,-0.044L0.866,0L0.646,0L0.648,-0.033C0.667,-0.034 0.681,-0.039 0.691,-0.046C0.701,-0.053 0.708,-0.064 0.712,-0.081C0.716,-0.098 0.718,-0.121 0.718,-0.152L0.718,-0.523L0.719,-0.58L0.717,-0.58L0.682,-0.503L0.444,0.01L0.415,0.01Z" style="fill:rgb(120,120,120);fill-rule:nonzero;"/>
        </g>
    </g>
</svg>
